<mxfile host="app.diagrams.net" agent="Mozilla/5.0 (Windows NT 10.0; Win64; x64) AppleWebKit/537.36 (KHTML, like Gecko) Chrome/134.0.0.0 Safari/537.36" version="26.1.1">
  <diagram name="Strona-1" id="_no7xblNlaX-Eg_O6Zmj">
    <mxGraphModel dx="979" dy="499" grid="1" gridSize="10" guides="1" tooltips="1" connect="1" arrows="1" fold="1" page="1" pageScale="1" pageWidth="827" pageHeight="1169" math="0" shadow="0">
      <root>
        <mxCell id="0" />
        <mxCell id="1" parent="0" />
        <mxCell id="YqQXoUuvV_6tKEAquSho-2" value="" style="endArrow=none;html=1;rounded=0;" edge="1" parent="1">
          <mxGeometry width="50" height="50" relative="1" as="geometry">
            <mxPoint x="360" y="330" as="sourcePoint" />
            <mxPoint x="360" y="200" as="targetPoint" />
          </mxGeometry>
        </mxCell>
        <mxCell id="YqQXoUuvV_6tKEAquSho-3" value="" style="endArrow=none;html=1;rounded=0;" edge="1" parent="1">
          <mxGeometry width="50" height="50" relative="1" as="geometry">
            <mxPoint x="360" y="510" as="sourcePoint" />
            <mxPoint x="360" y="380" as="targetPoint" />
          </mxGeometry>
        </mxCell>
        <mxCell id="YqQXoUuvV_6tKEAquSho-4" value="" style="endArrow=none;html=1;rounded=0;" edge="1" parent="1">
          <mxGeometry width="50" height="50" relative="1" as="geometry">
            <mxPoint x="440" y="510" as="sourcePoint" />
            <mxPoint x="440" y="200" as="targetPoint" />
          </mxGeometry>
        </mxCell>
        <mxCell id="YqQXoUuvV_6tKEAquSho-6" value="" style="endArrow=none;html=1;rounded=0;" edge="1" parent="1">
          <mxGeometry width="50" height="50" relative="1" as="geometry">
            <mxPoint x="360" y="200" as="sourcePoint" />
            <mxPoint x="440" y="200" as="targetPoint" />
          </mxGeometry>
        </mxCell>
        <mxCell id="YqQXoUuvV_6tKEAquSho-7" value="" style="endArrow=none;html=1;rounded=0;" edge="1" parent="1">
          <mxGeometry width="50" height="50" relative="1" as="geometry">
            <mxPoint x="360" y="379.81" as="sourcePoint" />
            <mxPoint x="370" y="379.81" as="targetPoint" />
          </mxGeometry>
        </mxCell>
        <mxCell id="YqQXoUuvV_6tKEAquSho-8" value="" style="endArrow=none;html=1;rounded=0;" edge="1" parent="1">
          <mxGeometry width="50" height="50" relative="1" as="geometry">
            <mxPoint x="360" y="330" as="sourcePoint" />
            <mxPoint x="370" y="330" as="targetPoint" />
          </mxGeometry>
        </mxCell>
        <mxCell id="YqQXoUuvV_6tKEAquSho-9" value="" style="endArrow=none;html=1;rounded=0;" edge="1" parent="1">
          <mxGeometry width="50" height="50" relative="1" as="geometry">
            <mxPoint x="370" y="380" as="sourcePoint" />
            <mxPoint x="370" y="330" as="targetPoint" />
          </mxGeometry>
        </mxCell>
        <mxCell id="YqQXoUuvV_6tKEAquSho-10" value="11" style="text;html=1;align=center;verticalAlign=middle;whiteSpace=wrap;rounded=0;" vertex="1" parent="1">
          <mxGeometry x="375" y="210" width="20" height="20" as="geometry" />
        </mxCell>
        <mxCell id="YqQXoUuvV_6tKEAquSho-12" value="12" style="text;html=1;align=center;verticalAlign=middle;whiteSpace=wrap;rounded=0;" vertex="1" parent="1">
          <mxGeometry x="405" y="210" width="20" height="20" as="geometry" />
        </mxCell>
        <mxCell id="YqQXoUuvV_6tKEAquSho-13" value="13" style="text;html=1;align=center;verticalAlign=middle;whiteSpace=wrap;rounded=0;" vertex="1" parent="1">
          <mxGeometry x="375" y="240" width="20" height="20" as="geometry" />
        </mxCell>
        <mxCell id="YqQXoUuvV_6tKEAquSho-14" value="21" style="text;html=1;align=center;verticalAlign=middle;whiteSpace=wrap;rounded=0;" vertex="1" parent="1">
          <mxGeometry x="405" y="240" width="20" height="20" as="geometry" />
        </mxCell>
        <mxCell id="YqQXoUuvV_6tKEAquSho-15" value="22" style="text;html=1;align=center;verticalAlign=middle;whiteSpace=wrap;rounded=0;" vertex="1" parent="1">
          <mxGeometry x="375" y="270" width="20" height="20" as="geometry" />
        </mxCell>
        <mxCell id="YqQXoUuvV_6tKEAquSho-16" value="23" style="text;html=1;align=center;verticalAlign=middle;whiteSpace=wrap;rounded=0;" vertex="1" parent="1">
          <mxGeometry x="404" y="270" width="20" height="20" as="geometry" />
        </mxCell>
        <mxCell id="YqQXoUuvV_6tKEAquSho-17" value="31" style="text;html=1;align=center;verticalAlign=middle;whiteSpace=wrap;rounded=0;" vertex="1" parent="1">
          <mxGeometry x="375" y="300" width="20" height="20" as="geometry" />
        </mxCell>
        <mxCell id="YqQXoUuvV_6tKEAquSho-18" value="32" style="text;html=1;align=center;verticalAlign=middle;whiteSpace=wrap;rounded=0;" vertex="1" parent="1">
          <mxGeometry x="404" y="300" width="20" height="20" as="geometry" />
        </mxCell>
        <mxCell id="YqQXoUuvV_6tKEAquSho-19" value="33" style="text;html=1;align=center;verticalAlign=middle;whiteSpace=wrap;rounded=0;" vertex="1" parent="1">
          <mxGeometry x="375" y="330" width="20" height="20" as="geometry" />
        </mxCell>
        <mxCell id="YqQXoUuvV_6tKEAquSho-20" value="41" style="text;html=1;align=center;verticalAlign=middle;whiteSpace=wrap;rounded=0;" vertex="1" parent="1">
          <mxGeometry x="404" y="330" width="20" height="20" as="geometry" />
        </mxCell>
        <mxCell id="YqQXoUuvV_6tKEAquSho-21" value="42" style="text;html=1;align=center;verticalAlign=middle;whiteSpace=wrap;rounded=0;" vertex="1" parent="1">
          <mxGeometry x="375" y="360" width="20" height="20" as="geometry" />
        </mxCell>
        <mxCell id="YqQXoUuvV_6tKEAquSho-22" value="43" style="text;html=1;align=center;verticalAlign=middle;whiteSpace=wrap;rounded=0;" vertex="1" parent="1">
          <mxGeometry x="404" y="360" width="20" height="20" as="geometry" />
        </mxCell>
        <mxCell id="YqQXoUuvV_6tKEAquSho-23" value="51" style="text;html=1;align=center;verticalAlign=middle;whiteSpace=wrap;rounded=0;" vertex="1" parent="1">
          <mxGeometry x="375" y="390" width="20" height="20" as="geometry" />
        </mxCell>
        <mxCell id="YqQXoUuvV_6tKEAquSho-24" value="52" style="text;html=1;align=center;verticalAlign=middle;whiteSpace=wrap;rounded=0;" vertex="1" parent="1">
          <mxGeometry x="404" y="390" width="20" height="20" as="geometry" />
        </mxCell>
        <mxCell id="YqQXoUuvV_6tKEAquSho-25" value="53" style="text;html=1;align=center;verticalAlign=middle;whiteSpace=wrap;rounded=0;" vertex="1" parent="1">
          <mxGeometry x="375" y="420" width="20" height="20" as="geometry" />
        </mxCell>
        <mxCell id="YqQXoUuvV_6tKEAquSho-26" value="61" style="text;html=1;align=center;verticalAlign=middle;whiteSpace=wrap;rounded=0;" vertex="1" parent="1">
          <mxGeometry x="404" y="420" width="20" height="20" as="geometry" />
        </mxCell>
        <mxCell id="YqQXoUuvV_6tKEAquSho-27" value="62" style="text;html=1;align=center;verticalAlign=middle;whiteSpace=wrap;rounded=0;" vertex="1" parent="1">
          <mxGeometry x="375" y="450" width="20" height="20" as="geometry" />
        </mxCell>
        <mxCell id="YqQXoUuvV_6tKEAquSho-28" value="63" style="text;html=1;align=center;verticalAlign=middle;whiteSpace=wrap;rounded=0;" vertex="1" parent="1">
          <mxGeometry x="404" y="450" width="20" height="20" as="geometry" />
        </mxCell>
        <mxCell id="YqQXoUuvV_6tKEAquSho-31" value="--" style="text;html=1;align=center;verticalAlign=middle;whiteSpace=wrap;rounded=0;" vertex="1" parent="1">
          <mxGeometry x="404" y="480" width="20" height="20" as="geometry" />
        </mxCell>
        <mxCell id="YqQXoUuvV_6tKEAquSho-32" value="--" style="text;html=1;align=center;verticalAlign=middle;whiteSpace=wrap;rounded=0;" vertex="1" parent="1">
          <mxGeometry x="375" y="480" width="20" height="20" as="geometry" />
        </mxCell>
        <mxCell id="YqQXoUuvV_6tKEAquSho-33" value="" style="endArrow=none;html=1;rounded=0;" edge="1" parent="1">
          <mxGeometry width="50" height="50" relative="1" as="geometry">
            <mxPoint x="360" y="510" as="sourcePoint" />
            <mxPoint x="440" y="510" as="targetPoint" />
          </mxGeometry>
        </mxCell>
        <mxCell id="YqQXoUuvV_6tKEAquSho-34" value="Naming convention&lt;div&gt;&lt;br&gt;&lt;/div&gt;&lt;div&gt;Pin &lt;font style=&quot;color: light-dark(rgb(0, 0, 0), rgb(0, 127, 255));&quot;&gt;X&lt;/font&gt;&lt;font style=&quot;color: light-dark(rgb(0, 0, 0), rgb(255, 0, 0));&quot;&gt;Y&lt;/font&gt;&lt;/div&gt;&lt;div&gt;&lt;br&gt;&lt;/div&gt;&lt;div&gt;&lt;font style=&quot;color: light-dark(rgb(0, 0, 0), rgb(0, 127, 255));&quot;&gt;X &lt;/font&gt;- leg number&lt;/div&gt;&lt;div&gt;&lt;font style=&quot;color: light-dark(rgb(0, 0, 0), rgb(255, 0, 0));&quot;&gt;Y&lt;/font&gt; - joint number in the kinematic chain&lt;/div&gt;" style="text;html=1;align=center;verticalAlign=middle;whiteSpace=wrap;rounded=0;" vertex="1" parent="1">
          <mxGeometry x="450" y="290" width="170" height="110" as="geometry" />
        </mxCell>
      </root>
    </mxGraphModel>
  </diagram>
</mxfile>
